<svg xmlns="http://www.w3.org/2000/svg" version="1.1" xmlns:xlink="http://www.w3.org/1999/xlink" xmlns:svgjs="http://svgjs.dev/svgjs" width="1500" height="1500" viewBox="0 0 1500 1500"><rect width="1500" height="1500" fill="#ffffff"></rect><g transform="matrix(0.6666666666666666,0,0,0.6666666666666666,249.39393939393932,547.7229529653317)"><svg viewBox="0 0 396 160" data-background-color="#ffffff" preserveAspectRatio="xMidYMid meet" height="606" width="1500" xmlns="http://www.w3.org/2000/svg" xmlns:xlink="http://www.w3.org/1999/xlink"><g id="tight-bounds" transform="matrix(1,0,0,1,0.24000000000003752,0.10972159788842362)"><svg viewBox="0 0 395.5199999999999 159.78055680422315" height="159.78055680422315" width="395.5199999999999"><g><svg viewBox="0 0 397.4976 160.57945958824428" height="159.78055680422315" width="395.5199999999999"><g><svg viewBox="0 0 397.4976 160.57945958824428" height="160.57945958824428" width="397.4976"><g id="textblocktransform"><svg viewBox="0 0 397.4976 160.57945958824428" height="160.57945958824428" width="397.4976" id="textblock"><g><rect width="397.4976" height="8.46338399838662" x="0" y="103.81878116839496" fill="#2e30ff" opacity="1" stroke-width="0" stroke="transparent" fill-opacity="1" class="rect-yte-0" data-fill-palette-color="primary" rx="1%" id="yte-0" data-palette-color="#2e30ff"></rect></g><g transform="matrix(1,0,0,1,0.9887999999999693,0)"><svg viewBox="0 0 395.52000000000004 93.84882619647355" height="93.84882619647355" width="395.52000000000004"><g transform="matrix(1,0,0,1,0,0)"><svg width="395.52000000000004" viewBox="4.15 -42.04 193.84 46" height="93.84882619647355" data-palette-color="#2e30ff"><path d="M41.85 3.86L38.33 3.86Q36.13 3.86 36.13 1.76L36.13 1.76Q36.13 0.54 36.69 0.12 37.26-0.29 38.09-0.32 38.92-0.34 39.79-0.34L39.79-0.34Q40.82-0.34 41.63-0.68 42.43-1.03 42.43-2.49L42.43-2.49 42.43-23.93 31.25-23.93Q29.25-23.93 28.2-24.73 27.15-25.54 27.15-27.69L27.15-27.69 27.15-36.57Q27.15-38.72 28.22-39.5 29.3-40.28 31.25-40.28L31.25-40.28 42.43-40.28Q44.73-40.28 45.56-39.11 46.39-37.94 46.39-35.79L46.39-35.79 46.39-0.98Q46.39 1.32 45.31 2.59 44.24 3.86 41.85 3.86L41.85 3.86ZM6.1 3.96L6.1 3.96Q5.08 3.96 4.61 3.37 4.15 2.78 4.15 1.81L4.15 1.81 4.15-36.23Q4.15-40.28 8.11-40.28L8.11-40.28 18.65-40.28Q20.65-40.28 21.7-39.5 22.75-38.72 22.75-36.57L22.75-36.57 22.75-27.69Q22.75-23.93 19.04-23.93L19.04-23.93 8.11-23.93 8.11 1.81Q8.11 2.78 7.62 3.37 7.13 3.96 6.1 3.96ZM8.11-35.35L8.11-33.69 19.09-33.69 19.09-35.4Q19.09-36.96 17.53-36.96L17.53-36.96 9.77-36.96Q9.03-36.96 8.57-36.52 8.11-36.08 8.11-35.35L8.11-35.35ZM30.81-35.4L30.81-33.69 42.43-33.69 42.43-35.35Q42.43-36.08 41.97-36.52 41.5-36.96 40.77-36.96L40.77-36.96 32.37-36.96Q30.81-36.96 30.81-35.4L30.81-35.4ZM8.11-30.71L8.11-27.2 17.53-27.2Q19.09-27.2 19.09-28.81L19.09-28.81 19.09-30.71 8.11-30.71ZM32.37-27.2L32.37-27.2 42.43-27.2 42.43-30.71 30.81-30.71 30.81-28.81Q30.81-27.2 32.37-27.2ZM30.47 2.93L30.47 2.93Q29.49 2.93 29.05 2.37 28.61 1.81 28.61 0.88L28.61 0.88 28.61-8.5 21.39-8.5Q21.19-6.3 20.43-4.15 19.68-2 18.12-0.34L18.12-0.34Q17.04 0.78 15.63 1.71 14.21 2.64 12.55 2.64L12.55 2.64Q10.69 2.64 10.69 0.73L10.69 0.73Q10.69-0.05 11.33-0.51 11.96-0.98 12.94-1.44 13.92-1.9 14.94-2.66 15.97-3.42 16.75-4.81 17.53-6.2 17.72-8.5L17.72-8.5 12.4-8.5Q11.52-8.5 10.96-8.91 10.4-9.33 10.4-10.25L10.4-10.25Q10.4-11.23 10.99-11.6 11.57-11.96 12.4-11.96L12.4-11.96 17.97-11.96Q17.97-12.94 17.99-13.96 18.02-14.99 18.02-15.97L18.02-15.97 18.02-16.36 17.97-17.09 17.97-17.48 14.06-17.48Q13.18-17.48 12.62-17.9 12.06-18.31 12.06-19.24L12.06-19.24Q12.06-20.21 12.65-20.58 13.23-20.95 14.06-20.95L14.06-20.95 36.43-20.95Q37.3-20.95 37.87-20.56 38.43-20.17 38.43-19.19L38.43-19.19Q38.43-18.26 37.84-17.87 37.26-17.48 36.43-17.48L36.43-17.48 32.32-17.48 32.32-11.96 38.18-11.96Q39.06-11.96 39.62-11.57 40.19-11.18 40.19-10.21L40.19-10.21Q40.19-9.28 39.6-8.89 39.01-8.5 38.18-8.5L38.18-8.5 32.32-8.5 32.32 0.88Q32.32 1.81 31.88 2.37 31.45 2.93 30.47 2.93ZM21.58-11.96L21.58-11.96 28.61-11.96 28.61-17.48 21.63-17.48Q21.73-16.11 21.7-14.72 21.68-13.33 21.58-11.96ZM94.33 3.56L94.33 3.56Q93.11 3.56 92.01 2.73 90.92 1.9 90.01 0.66 89.11-0.59 88.43-1.88 87.74-3.17 87.3-4.1L87.3-4.1Q86.67-3.32 85.5-2.05 84.32-0.78 82.88 0.49 81.44 1.76 80.05 2.61 78.66 3.47 77.63 3.47L77.63 3.47Q76.66 3.47 76.22 2.91 75.78 2.34 75.78 1.42L75.78 1.42Q75.78 0.63 76.34 0.12 76.9-0.39 77.49-0.73L77.49-0.73Q79.93-2.29 82.03-4.13 84.13-5.96 85.84-8.3L85.84-8.3Q84.42-13.38 84.06-18.9 83.69-24.41 83.54-29.64L83.54-29.64 75.1-29.64Q73.97-29.64 73.63-28.91 73.29-28.17 73.29-27.2L73.29-27.2 73.29-23.19 78.12-23.19Q82.03-23.19 82.03-19.24L82.03-19.24Q82.03-16.7 82-14.11 81.98-11.52 81.59-9.03L81.59-9.03Q81.25-6.59 79.98-5.22 78.71-3.86 76.12-3.86L76.12-3.86Q75.05-3.86 74.44-4.37 73.83-4.88 73.83-5.96L73.83-5.96Q73.83-6.84 74.39-7.2 74.95-7.57 75.73-7.74 76.51-7.91 77.17-8.15 77.83-8.4 78.02-9.08L78.02-9.08Q78.56-10.99 78.56-13.4 78.56-15.82 78.66-17.82L78.66-17.82Q78.71-18.6 78.29-19.07 77.88-19.53 77.1-19.53L77.1-19.53 73.29-19.53Q73.29-19.14 73.26-17.43 73.24-15.72 73.12-13.33 73-10.94 72.75-8.35 72.51-5.76 72.04-3.49 71.58-1.22 70.87 0.2 70.16 1.61 69.14 1.61L69.14 1.61Q68.21 1.61 67.62 1.17 67.04 0.73 67.04-0.29L67.04-0.29Q67.04-0.78 67.26-1.37 67.48-1.95 67.62-2.39L67.62-2.39Q69.04-6.15 69.38-10.57 69.72-14.99 69.72-18.99L69.72-18.99Q69.72-20.9 69.68-22.78 69.63-24.66 69.63-26.56L69.63-26.56Q69.63-28.47 69.75-30.1 69.87-31.74 70.82-32.74 71.77-33.74 74.17-33.74L74.17-33.74 83.4-33.74 83.4-38.53Q83.4-39.36 83.4-40.14 83.4-40.92 83.79-41.46 84.18-41.99 85.35-41.99L85.35-41.99Q86.62-41.99 86.96-41.04 87.3-40.09 87.3-39.11L87.3-39.11Q87.3-37.74 87.28-36.43 87.25-35.11 87.25-33.74L87.25-33.74 95.41-33.74Q96.48-33.74 97.21-33.3 97.95-32.86 97.95-31.69L97.95-31.69Q97.95-30.52 97.21-30.08 96.48-29.64 95.41-29.64L95.41-29.64 87.3-29.64Q87.3-25.39 87.57-21.14 87.84-16.89 88.62-12.7L88.62-12.7Q89.94-15.09 90.87-17.55 91.79-20.02 92.58-22.56L92.58-22.56Q92.82-23.29 93.23-23.93 93.65-24.56 94.53-24.56L94.53-24.56Q95.46-24.56 96.02-24.12 96.58-23.68 96.58-22.71L96.58-22.71Q96.58-21.92 96.07-20.39 95.55-18.85 94.72-16.99 93.89-15.14 92.97-13.28 92.04-11.43 91.21-9.91 90.38-8.4 89.89-7.67L89.89-7.67Q90.28-6.54 90.77-5.44 91.26-4.35 91.99-3.37L91.99-3.37Q92.09-3.22 92.43-2.78 92.77-2.34 93.14-1.95 93.5-1.56 93.7-1.56L93.7-1.56Q94.19-1.56 94.33-2.32 94.48-3.08 94.5-4.17 94.53-5.27 94.63-6.37 94.72-7.47 95.09-8.23 95.46-8.98 96.29-8.98L96.29-8.98Q97.21-8.98 97.6-8.45 98-7.91 98-7.08L98-7.08Q98-6.4 97.97-5.13 97.95-3.86 97.78-2.37 97.6-0.88 97.21 0.49 96.82 1.86 96.14 2.71 95.46 3.56 94.33 3.56ZM93.16-34.42L93.16-34.42Q92.67-34.42 92.04-35.06 91.4-35.69 90.79-36.6 90.18-37.5 89.77-38.33 89.35-39.16 89.35-39.55L89.35-39.55Q89.35-40.53 90.04-40.84 90.72-41.16 91.5-41.16L91.5-41.16Q91.94-41.16 92.58-40.58 93.21-39.99 93.85-39.16 94.48-38.33 94.92-37.52 95.36-36.72 95.36-36.33L95.36-36.33Q95.36-35.25 94.75-34.84 94.14-34.42 93.16-34.42ZM64.99-36.18L55.61-36.18Q54.69-36.18 54.07-36.57 53.46-36.96 53.46-37.99L53.46-37.99Q53.46-39.01 54.07-39.4 54.69-39.79 55.61-39.79L55.61-39.79 64.99-39.79Q65.92-39.79 66.53-39.4 67.14-39.01 67.14-37.99L67.14-37.99Q67.14-36.96 66.53-36.57 65.92-36.18 64.99-36.18L64.99-36.18ZM66.4-29.39L54.15-29.39Q53.22-29.39 52.61-29.79 52-30.18 52-31.2L52-31.2Q52-32.23 52.61-32.62 53.22-33.01 54.15-33.01L54.15-33.01 66.4-33.01Q67.33-33.01 67.94-32.62 68.55-32.23 68.55-31.2L68.55-31.2Q68.55-30.18 67.94-29.79 67.33-29.39 66.4-29.39L66.4-29.39ZM64.89-22.8L55.76-22.8Q54.88-22.8 54.29-23.19 53.71-23.58 53.71-24.56L53.71-24.56Q53.71-25.54 54.29-25.9 54.88-26.27 55.76-26.27L55.76-26.27 64.89-26.27Q65.77-26.27 66.35-25.9 66.94-25.54 66.94-24.56L66.94-24.56Q66.94-23.58 66.35-23.19 65.77-22.8 64.89-22.8L64.89-22.8ZM64.99-16.11L55.76-16.11Q54.88-16.11 54.29-16.5 53.71-16.89 53.71-17.82L53.71-17.82Q53.71-18.8 54.29-19.19 54.88-19.58 55.76-19.58L55.76-19.58 64.99-19.58Q65.87-19.58 66.45-19.19 67.04-18.8 67.04-17.82L67.04-17.82Q67.04-16.89 66.45-16.5 65.87-16.11 64.99-16.11L64.99-16.11ZM62.69 1.9L57.81 1.9Q53.81 1.9 53.81-2L53.81-2 53.81-8.94Q53.81-12.94 57.81-12.94L57.81-12.94 62.69-12.94Q66.7-12.94 66.7-8.94L66.7-8.94 66.7-2.1Q66.7 1.9 62.69 1.9L62.69 1.9ZM58.44-1.42L58.44-1.42 62.06-1.42Q63.38-1.42 63.38-2.73L63.38-2.73 63.38-8.3Q63.38-9.62 62.06-9.62L62.06-9.62 58.44-9.62Q57.13-9.62 57.13-8.3L57.13-8.3 57.13-2.73Q57.13-1.42 58.44-1.42ZM104.34 3.61L104.34 3.61Q102 3.61 102 1.12L102 1.12Q102-0.15 103.1-0.68 104.19-1.22 105.17-1.42L105.17-1.42Q109.66-2.49 113.79-4.1 117.91-5.71 121.63-8.59L121.63-8.59Q116.84-12.99 114.16-18.75L114.16-18.75Q113.76-19.58 113.13-21 112.5-22.41 112.01-23.88 111.52-25.34 111.52-26.22L111.52-26.22Q111.52-27.29 112.2-27.71 112.89-28.13 113.81-28.13L113.81-28.13Q114.84-28.13 115.4-27.49 115.96-26.86 116.3-25.98L116.3-25.98Q117.43-22.9 118.5-20.53 119.58-18.16 121.09-16.06 122.6-13.96 125-11.62L125-11.62Q128.61-15.48 130.66-20.17 132.71-24.85 133.54-30.03L133.54-30.03 105.32-30.03Q104.19-30.03 103.39-30.52 102.58-31.01 102.58-32.23L102.58-32.23Q102.58-33.5 103.39-33.96 104.19-34.42 105.32-34.42L105.32-34.42 122.41-34.42 122.41-39.11Q122.41-40.33 122.9-41.19 123.38-42.04 124.75-42.04L124.75-42.04Q126.12-42.04 126.63-41.21 127.14-40.38 127.14-39.11L127.14-39.11 127.14-34.42 144.67-34.42Q145.8-34.42 146.6-33.96 147.41-33.5 147.41-32.23L147.41-32.23Q147.41-31.01 146.6-30.52 145.8-30.03 144.67-30.03L144.67-30.03 138.47-30.03Q137.25-24.27 134.83-18.77 132.42-13.28 128.36-8.94L128.36-8.94Q132.22-6.15 136.4-4.57 140.57-2.98 145.11-1.81L145.11-1.81Q146.14-1.56 147.07-1.03 147.99-0.49 147.99 0.78L147.99 0.78Q147.99 1.95 147.46 2.69 146.92 3.42 145.65 3.42L145.65 3.42Q145.16 3.42 144.7 3.3 144.23 3.17 143.75 3.03L143.75 3.03Q138.72 1.61 133.93-0.46 129.15-2.54 125-5.76L125-5.76Q123.33-4.3 120.75-2.66 118.16-1.03 115.2 0.39 112.25 1.81 109.39 2.71 106.54 3.61 104.34 3.61ZM161.71 3.47L161.71 3.47Q159.47 3.47 159.47 1.37L159.47 1.37Q159.47-0.73 161.47-0.73L161.47-0.73Q162.64-0.73 163.42-0.85 164.2-0.98 164.69-2.34L164.69-2.34Q164.84-2.78 165.01-4.42 165.18-6.05 165.35-8.23 165.52-10.4 165.67-12.6 165.81-14.79 165.89-16.46 165.96-18.12 165.96-18.6L165.96-18.6Q165.96-20.02 164.49-20.02L164.49-20.02 161.13-20.02Q160.88-15.92 160.32-11.67 159.76-7.42 158.34-3.52L158.34-3.52Q158.15-2.93 157.76-1.95 157.37-0.98 156.8 0.02 156.24 1.03 155.56 1.71 154.88 2.39 154.09 2.39L154.09 2.39Q151.99 2.39 151.99 0.24L151.99 0.24Q151.99-0.15 152.14-0.46 152.29-0.78 152.48-1.12L152.48-1.12Q154.05-3.81 155.07-6.45 156.1-9.08 156.58-12.16L156.58-12.16Q157.27-16.6 157.41-21.17 157.56-25.73 157.56-30.18L157.56-30.18Q156.93-30.18 155.97-30.1 155.02-30.03 154.12-30.13 153.22-30.22 152.6-30.66 151.99-31.1 151.99-32.13L151.99-32.13Q151.99-33.25 152.65-33.67 153.31-34.08 154.29-34.08L154.29-34.08 159.56-34.08 159.56-39.79Q159.56-41.99 161.66-41.99L161.66-41.99Q163.71-41.99 163.71-39.79L163.71-39.79 163.71-34.08 168.6-34.08Q169.57-34.08 170.18-33.64 170.79-33.2 170.79-32.13L170.79-32.13Q170.79-31.05 170.18-30.62 169.57-30.18 168.6-30.18L168.6-30.18 161.32-30.18 161.27-23.93Q162.35-23.93 163.84-24 165.32-24.07 166.72-23.85 168.11-23.63 169.01-22.85 169.91-22.07 169.82-20.31L169.82-20.31Q169.67-16.65 169.5-12.99 169.33-9.33 169.04-5.66L169.04-5.66Q168.84-2.88 168.35-0.83 167.86 1.22 166.4 2.34 164.93 3.47 161.71 3.47ZM171.57-25.49L171.57-25.49Q169.62-25.49 169.62-27.39L169.62-27.39Q169.62-27.88 170.26-28.76 170.89-29.64 171.18-29.98L171.18-29.98Q172.8-32.08 173.92-34.33 175.04-36.57 175.97-38.96L175.97-38.96Q176.16-39.45 176.51-40.16 176.85-40.87 177.36-41.43 177.87-41.99 178.51-41.99L178.51-41.99Q179.44-41.99 179.97-41.58 180.51-41.16 180.51-40.19L180.51-40.19Q180.51-39.84 180.17-38.96 179.83-38.09 179.46-37.21 179.09-36.33 178.9-35.99L178.9-35.99 195.5-35.99Q196.48-35.99 197.14-35.55 197.8-35.11 197.8-33.98L197.8-33.98Q197.8-32.91 197.14-32.47 196.48-32.03 195.5-32.03L195.5-32.03 176.9-32.03Q176.6-31.54 175.99-30.47 175.38-29.39 174.6-28.25 173.82-27.1 173.04-26.29 172.26-25.49 171.57-25.49ZM178.8 3.91L178.8 3.91Q177.73 3.91 177.29 3.3 176.85 2.69 176.85 1.71L176.85 1.71 176.85-19.29Q175.82-18.99 174.68-18.63 173.53-18.26 172.45-18.26L172.45-18.26Q171.53-18.26 171.11-18.8 170.7-19.34 170.7-20.21L170.7-20.21Q170.7-21.09 171.28-21.68L171.28-21.68Q171.48-21.88 172.23-22.12 172.99-22.36 173.8-22.58 174.6-22.8 174.85-22.85L174.85-22.85Q179.29-24.02 183.44-25.59 187.59-27.15 191.59-29.3L191.59-29.3Q191.98-29.49 192.4-29.66 192.81-29.83 193.25-29.83L193.25-29.83Q194.28-29.83 194.72-29.25 195.16-28.66 195.16-27.69L195.16-27.69Q195.16-27 194.26-26.29 193.35-25.59 192.06-24.95 190.76-24.32 189.62-23.85 188.47-23.39 187.98-23.19L187.98-23.19Q188.08-21 188.32-18.8 188.57-16.6 189.01-14.45L189.01-14.45Q189.98-15.53 190.96-16.58 191.94-17.63 192.86-18.7L192.86-18.7Q193.35-19.24 193.96-19.95 194.57-20.65 195.35-20.65L195.35-20.65Q196.33-20.65 196.92-20.21 197.5-19.78 197.5-18.75L197.5-18.75Q197.5-18.31 196.84-17.48 196.18-16.65 195.21-15.63 194.23-14.6 193.18-13.62 192.13-12.65 191.28-11.89 190.42-11.13 190.13-10.84L190.13-10.84Q192.28-5.22 196.62-1.07L196.62-1.07Q197.11-0.59 197.55-0.02 197.99 0.54 197.99 1.27L197.99 1.27Q197.99 2.34 197.48 2.95 196.97 3.56 195.84 3.56L195.84 3.56Q194.96 3.56 194.01 2.76 193.06 1.95 192.28 0.95 191.5-0.05 191.01-0.68L191.01-0.68Q187.74-5.32 186.25-10.74 184.76-16.16 184.42-21.78L184.42-21.78Q183.54-21.44 182.63-21.07 181.73-20.7 180.8-20.46L180.8-20.46 180.8 1.61Q180.8 2.59 180.36 3.25 179.92 3.91 178.8 3.91Z" opacity="1" transform="matrix(1,0,0,1,0,0)" fill="#2e30ff" class="wordmark-text-0" data-fill-palette-color="primary" id="text-0"></path></svg></g></svg></g><g transform="matrix(1,0,0,1,0,122.25212013870299)"><svg viewBox="0 0 395.52000000000004 38.32733944954129" height="38.32733944954129" width="395.52000000000004"><g transform="matrix(1,0,0,1,0,0)"><svg width="395.52000000000004" viewBox="1 -38.9 523.16 50.7" height="38.32733944954129" data-palette-color="#2e30ff"><path d="M31.95 0L1 0 1-8.2 3.5-8.2 3.5-30.7 1-30.7 1-38.9 22.1-38.9 22.1-30.7 17.5-30.7 17.5-8.2 22-8.2 22-12.8 31.95-12.8 31.95 0ZM48.45 0.7Q41.35 0.7 37.35-3.03 33.35-6.75 33.35-13.9L33.35-13.9Q33.35-21.05 37.35-24.78 41.35-28.5 48.45-28.5L48.45-28.5Q55.5-28.5 58.62-24.83 61.75-21.15 61.75-15.7L61.75-15.7 61.75-12.1 45.55-12.1 45.55-11.8Q45.55-9.95 46.65-9.08 47.75-8.2 50.3-8.2L50.3-8.2Q53.35-8.2 56.1-8.65 58.85-9.1 60.9-9.8L60.9-9.8 60.9-1.8Q59.15-0.85 55.77-0.08 52.4 0.7 48.45 0.7L48.45 0.7ZM45.55-17.6L51.35-17.6 51.35-18.2Q51.35-19.9 50.62-20.65 49.9-21.4 48.45-21.4L48.45-21.4Q47-21.4 46.27-20.63 45.55-19.85 45.55-18.2L45.55-18.2 45.55-17.6ZM90.2-8.2L92.4-8.2 92.4 0 79.2 0 79.2-3.4Q78.09-1.8 76.12-0.55 74.15 0.7 71.3 0.7L71.3 0.7Q67.55 0.7 65.4-1.3 63.25-3.3 63.25-6.95L63.25-6.95Q63.25-16.4 79.3-16.65L79.3-16.65Q79.15-18.35 78-18.98 76.84-19.6 74.09-19.6L74.09-19.6Q71.84-19.6 69.27-19.13 66.7-18.65 64.55-17.85L64.55-17.85 64.55-27.05Q67.2-27.7 70.3-28.1 73.4-28.5 76.34-28.5L76.34-28.5Q83.8-28.5 87-25.8 90.2-23.1 90.2-17.45L90.2-17.45 90.2-8.2ZM79.2-11.4L79.2-11.7Q76.95-11.7 75.72-11.1 74.5-10.5 74.5-9.1L74.5-9.1Q74.5-8.25 75.02-7.73 75.55-7.2 76.5-7.2L76.5-7.2Q77.8-7.2 78.5-8.3 79.2-9.4 79.2-11.4L79.2-11.4ZM115.34-28.5Q116.34-28.5 117.24-28.3 118.14-28.1 118.74-27.8L118.74-27.8 118.74-18.25Q116.69-19.1 114.34-19.1L114.34-19.1Q111.19-19.1 109.49-17.45 107.79-15.8 107.79-12.55L107.79-12.55 107.79-8.2 112.29-8.2 112.29 0 94.09 0 94.09-8.2 96.29-8.2 96.29-19.6 94.09-19.6 94.09-27.8 107.79-27.8 107.79-24.15Q109.19-26.25 110.99-27.38 112.79-28.5 115.34-28.5L115.34-28.5ZM151.34-8.2L153.54-8.2 153.54 0 137.74 0 137.74-8.2 139.84-8.2 139.84-16.4Q139.84-18.05 139.14-18.82 138.44-19.6 137.04-19.6L137.04-19.6Q134.04-19.6 134.04-16.4L134.04-16.4 134.04-8.2 136.14-8.2 136.14 0 120.34 0 120.34-8.2 122.54-8.2 122.54-19.6 120.34-19.6 120.34-27.8 134.04-27.8 134.04-23.9Q137.64-28.5 143.04-28.5L143.04-28.5Q147.19-28.5 149.26-25.9 151.34-23.3 151.34-18.75L151.34-18.75 151.34-8.2ZM167.74-30.55L157.54-30.55 157.54-38.9 167.74-38.9 167.74-30.55ZM171.04 0L155.14 0 155.14-8.2 157.34-8.2 157.34-19.6 155.14-19.6 155.14-27.8 168.84-27.8 168.84-8.2 171.04-8.2 171.04 0ZM203.44-8.2L205.64-8.2 205.64 0 189.84 0 189.84-8.2 191.94-8.2 191.94-16.4Q191.94-18.05 191.24-18.82 190.54-19.6 189.14-19.6L189.14-19.6Q186.14-19.6 186.14-16.4L186.14-16.4 186.14-8.2 188.24-8.2 188.24 0 172.44 0 172.44-8.2 174.64-8.2 174.64-19.6 172.44-19.6 172.44-27.8 186.14-27.8 186.14-23.9Q189.74-28.5 195.14-28.5L195.14-28.5Q199.29-28.5 201.36-25.9 203.44-23.3 203.44-18.75L203.44-18.75 203.44-8.2ZM221.88 11.8Q218.28 11.8 215.01 11.3 211.73 10.8 209.93 10.15L209.93 10.15 209.93 1.95Q215.23 2.9 219.43 2.9L219.43 2.9Q222.28 2.9 223.56 2.02 224.83 1.15 224.83-1.25L224.83-1.25 224.83-3.4Q223.58-1.8 221.61-0.55 219.63 0.7 217.08 0.7L217.08 0.7Q211.98 0.7 209.41-3.1 206.83-6.9 206.83-13.9L206.83-13.9Q206.83-20.9 209.41-24.7 211.98-28.5 217.08-28.5L217.08-28.5Q219.63-28.5 221.61-27.25 223.58-26 224.83-24.4L224.83-24.4 224.83-27.8 238.53-27.8 238.53-19.6 236.33-19.6 236.33-2Q236.33 5.25 232.73 8.53 229.13 11.8 221.88 11.8L221.88 11.8ZM221.93-8.2Q223.38-8.2 224.11-8.97 224.83-9.75 224.83-11.4L224.83-11.4 224.83-16.4Q224.83-18.05 224.11-18.82 223.38-19.6 221.93-19.6L221.93-19.6Q220.48-19.6 219.76-18.82 219.03-18.05 219.03-16.4L219.03-16.4 219.03-11.4Q219.03-9.75 219.76-8.97 220.48-8.2 221.93-8.2L221.93-8.2ZM281.88-8.2L284.08-8.2 284.08 0 270.88 0 270.88-3.4Q269.78-1.8 267.8-0.55 265.83 0.7 262.98 0.7L262.98 0.7Q259.23 0.7 257.08-1.3 254.93-3.3 254.93-6.95L254.93-6.95Q254.93-16.4 270.98-16.65L270.98-16.65Q270.83-18.35 269.68-18.98 268.53-19.6 265.78-19.6L265.78-19.6Q263.53-19.6 260.95-19.13 258.38-18.65 256.23-17.85L256.23-17.85 256.23-27.05Q258.88-27.7 261.98-28.1 265.08-28.5 268.03-28.5L268.03-28.5Q275.48-28.5 278.68-25.8 281.88-23.1 281.88-17.45L281.88-17.45 281.88-8.2ZM270.88-11.4L270.88-11.7Q268.63-11.7 267.4-11.1 266.18-10.5 266.18-9.1L266.18-9.1Q266.18-8.25 266.7-7.73 267.23-7.2 268.18-7.2L268.18-7.2Q269.48-7.2 270.18-8.3 270.88-9.4 270.88-11.4L270.88-11.4ZM316.68-8.2L318.88-8.2 318.88 0 303.08 0 303.08-8.2 305.18-8.2 305.18-16.4Q305.18-18.05 304.48-18.82 303.78-19.6 302.38-19.6L302.38-19.6Q299.38-19.6 299.38-16.4L299.38-16.4 299.38-8.2 301.48-8.2 301.48 0 285.68 0 285.68-8.2 287.88-8.2 287.88-19.6 285.68-19.6 285.68-27.8 299.38-27.8 299.38-23.9Q302.98-28.5 308.38-28.5L308.38-28.5Q312.53-28.5 314.6-25.9 316.68-23.3 316.68-18.75L316.68-18.75 316.68-8.2ZM330.32 0.7Q325.22 0.7 322.65-3.1 320.07-6.9 320.07-13.9L320.07-13.9Q320.07-20.9 322.65-24.7 325.22-28.5 330.32-28.5L330.32-28.5Q332.87-28.5 334.85-27.25 336.82-26 338.07-24.4L338.07-24.4 338.07-30.7 335.12-30.7 335.12-38.9 349.57-38.9 349.57-8.2 351.77-8.2 351.77 0 338.07 0 338.07-3.4Q336.82-1.8 334.85-0.55 332.87 0.7 330.32 0.7L330.32 0.7ZM335.17-8.2Q336.62-8.2 337.35-8.97 338.07-9.75 338.07-11.4L338.07-11.4 338.07-16.4Q338.07-18.05 337.35-18.82 336.62-19.6 335.17-19.6L335.17-19.6Q333.72-19.6 333-18.82 332.27-18.05 332.27-16.4L332.27-16.4 332.27-11.4Q332.27-9.75 333-8.97 333.72-8.2 335.17-8.2L335.17-8.2ZM380.72 0.7Q375.42 0.7 372.74-1.88 370.07-4.45 370.07-10.55L370.07-10.55 370.07-19.6 367.87-19.6 367.87-27.8Q369.77-27.8 370.72-28.78 371.67-29.75 371.67-31.45L371.67-31.45 371.67-33.7 382.27-33.7 382.27-27.8 389.02-27.8 389.02-19.6 382.27-19.6 382.27-11.4Q382.27-9.75 382.99-8.97 383.72-8.2 385.17-8.2L385.17-8.2Q387.07-8.2 389.32-8.65L389.32-8.65 389.32-0.8Q387.92-0.25 385.54 0.23 383.17 0.7 380.72 0.7L380.72 0.7ZM412.27-28.5Q413.27-28.5 414.17-28.3 415.07-28.1 415.67-27.8L415.67-27.8 415.67-18.25Q413.62-19.1 411.27-19.1L411.27-19.1Q408.12-19.1 406.42-17.45 404.72-15.8 404.72-12.55L404.72-12.55 404.72-8.2 409.22-8.2 409.22 0 391.02 0 391.02-8.2 393.22-8.2 393.22-19.6 391.02-19.6 391.02-27.8 404.72-27.8 404.72-24.15Q406.12-26.25 407.92-27.38 409.72-28.5 412.27-28.5L412.27-28.5ZM444.21-8.2L446.41-8.2 446.41 0 433.21 0 433.21-3.4Q432.11-1.8 430.14-0.55 428.16 0.7 425.31 0.7L425.31 0.7Q421.56 0.7 419.41-1.3 417.26-3.3 417.26-6.95L417.26-6.95Q417.26-16.4 433.31-16.65L433.31-16.65Q433.16-18.35 432.01-18.98 430.86-19.6 428.11-19.6L428.11-19.6Q425.86-19.6 423.29-19.13 420.71-18.65 418.56-17.85L418.56-17.85 418.56-27.05Q421.21-27.7 424.31-28.1 427.41-28.5 430.36-28.5L430.36-28.5Q437.81-28.5 441.01-25.8 444.21-23.1 444.21-17.45L444.21-17.45 444.21-8.2ZM433.21-11.4L433.21-11.7Q430.96-11.7 429.74-11.1 428.51-10.5 428.51-9.1L428.51-9.1Q428.51-8.25 429.04-7.73 429.56-7.2 430.51-7.2L430.51-7.2Q431.81-7.2 432.51-8.3 433.21-9.4 433.21-11.4L433.21-11.4ZM468.91 0L454.01 0 447.71-19.6 445.61-19.6 445.61-27.8 461.06-27.8 461.06-19.6 458.96-19.6 461.61-9.7 462.11-9.7 464.76-19.6 462.66-19.6 462.66-27.8 477.16-27.8 477.16-19.6 475.06-19.6 468.91 0ZM493.46 0.7Q486.36 0.7 482.36-3.03 478.36-6.75 478.36-13.9L478.36-13.9Q478.36-21.05 482.36-24.78 486.36-28.5 493.46-28.5L493.46-28.5Q500.51-28.5 503.63-24.83 506.76-21.15 506.76-15.7L506.76-15.7 506.76-12.1 490.56-12.1 490.56-11.8Q490.56-9.95 491.66-9.08 492.76-8.2 495.31-8.2L495.31-8.2Q498.36-8.2 501.11-8.65 503.86-9.1 505.91-9.8L505.91-9.8 505.91-1.8Q504.16-0.85 500.78-0.08 497.41 0.7 493.46 0.7L493.46 0.7ZM490.56-17.6L496.36-17.6 496.36-18.2Q496.36-19.9 495.63-20.65 494.91-21.4 493.46-21.4L493.46-21.4Q492.01-21.4 491.28-20.63 490.56-19.85 490.56-18.2L490.56-18.2 490.56-17.6ZM524.16 0.05L508.26 0.05 508.26-8.2 510.46-8.2 510.46-30.7 508.26-30.7 508.26-38.9 521.96-38.9 521.96-8.2 524.16-8.2 524.16 0.05Z" opacity="1" transform="matrix(1,0,0,1,0,0)" fill="#2e30ff" class="slogan-text-1" data-fill-palette-color="secondary" id="text-1"></path></svg></g></svg></g></svg></g></svg></g></svg></g><defs></defs></svg><rect width="395.5199999999999" height="159.78055680422315" fill="none" stroke="none" visibility="hidden"></rect></g></svg></g></svg>