<svg width="352.7091918945312px" height="121.15701904296874px" xmlns="http://www.w3.org/2000/svg" viewBox="73.64540405273439 14.42149047851563 352.7091918945312 121.15701904296874" style="background: rgba(0, 0, 0, 0);" preserveAspectRatio="xMidYMid"><defs><filter id="editing-extrude-glow"><feFlood flood-color="#333333" result="flood-1"></feFlood><feMorphology operator="erode" radius="1" in="SourceAlpha" result="erode"></feMorphology><feComposite operator="in" in="flood-1" in2="erode" result="comp1"></feComposite><feConvolveMatrix order="3,3" divisor="1" in="comp1" result="convolve" kernelMatrix="0 0 0 1 1 1 0 0 0"></feConvolveMatrix><feOffset dx="-3" dy="0" in="convolve" result="extrude"></feOffset><feComposite operator="in" in="flood-1" in2="extrude" result="comp-extrude"></feComposite><feFlood flood-color="#000000" result="flood-2"></feFlood><feComposite operator="in" in="flood-2" in2="SourceAlpha" result="comp2"></feComposite><feMorphology operator="dilate" radius="1" in="comp2" result="dilate"></feMorphology><feOffset dx="-4.5" dy="0" in="dilate" result="offset"></feOffset><feGaussianBlur in="offset" stdDeviation="5.8" result="blur"></feGaussianBlur><feComponentTransfer in="blur" result="shadow"><feFuncA type="linear" slope="0.8" intercept="-0.2"></feFuncA></feComponentTransfer><feMerge><feMergeNode in="shadow"></feMergeNode><feMergeNode in="comp-extrude"></feMergeNode><feMergeNode in="SourceGraphic"></feMergeNode></feMerge></filter></defs><g filter="url(#editing-extrude-glow)"><g transform="translate(128.3795529603958, 103.19000053405762)"><path d="M6.53 0L-0.83 0L10.75-42.24L24.13-42.24L27.07-18.11L38.98-42.24L50.18-42.24L51.33-10.62L51.33-10.62Q51.58-4.35 54.66-2.43L54.66-2.43L54.66-2.43Q53.95-1.15 51.90 0.06L51.90 0.06L51.90 0.06Q49.86 1.28 47.14 1.28L47.14 1.28L47.14 1.28Q44.42 1.28 42.82 0.51L42.82 0.51L42.82 0.51Q41.22-0.26 40.32-1.54L40.32-1.54L40.32-1.54Q38.72-3.84 38.72-8.26L38.72-8.26L38.72-28.03L26.11 0L18.18 0L13.70-28.74L6.53 0ZM77.76-7.23L77.76-7.23L77.76-7.23Q74.43-3.78 68.35-3.78L68.35-3.78L68.35-3.78Q60.74-3.78 59.14-9.34L59.14-9.34L59.14-9.34Q58.62-11.01 58.62-12.86L58.62-12.86L58.62-12.86Q58.62-14.72 59.01-16.64L59.01-16.64L62.02-32.64L75.01-33.92L71.49-15.30L71.49-15.30Q71.36-14.46 71.17-13.57L71.17-13.57L71.17-13.57Q70.98-12.67 70.98-11.74L70.98-11.74L70.98-11.74Q70.98-10.82 71.30-10.21L71.30-10.21L71.30-10.21Q71.62-9.60 72.06-9.22L72.06-9.22L72.06-9.22Q72.83-8.70 74.21-8.70L74.21-8.70L74.21-8.70Q75.58-8.70 76.77-10.37L76.77-10.37L76.77-10.37Q77.95-12.03 78.53-14.91L78.53-14.91L82.05-32.64L94.66-33.92L89.86-8.77L89.86-8.77Q87.49 3.52 82.62 8.38L82.62 8.38L82.62 8.38Q80.13 10.88 76.90 11.87L76.90 11.87L76.90 11.87Q73.66 12.86 69.50 12.86L69.50 12.86L69.50 12.86Q62.78 12.86 58.94 10.75L58.94 10.75L58.94 10.75Q55.10 8.64 55.10 5.12L55.10 5.12L55.10 5.12Q55.10 2.50 57.09 0.99L57.09 0.99L57.09 0.99Q59.07-0.51 62.14-0.51L62.14-0.51L62.14-0.51Q64.83-0.51 66.88 0.64L66.88 0.64L66.88 0.64Q68.10 1.34 68.67 2.24L68.67 2.24L68.67 2.24Q67.20 3.52 67.20 5.63L67.20 5.63L67.20 5.63Q67.20 8.45 69.76 8.45L69.76 8.45L69.76 8.45Q73.98 8.45 76.42-1.28L76.42-1.28L76.42-1.28Q77.12-4.16 77.76-7.23ZM143.55-13.25L143.55-13.25L143.55-13.25Q145.22-12.03 145.22-9.44L145.22-9.44L145.22-9.44Q145.22-6.85 144.10-5.02L144.10-5.02L144.10-5.02Q142.98-3.20 140.80-1.79L140.80-1.79L140.80-1.79Q136.13 1.22 127.97 1.22L127.97 1.22L127.97 1.22Q119.81 1.22 115.36-3.04L115.36-3.04L115.36-3.04Q110.91-7.30 110.91-14.85L110.91-14.85L110.91-14.85Q110.91-25.54 116.48-33.66L116.48-33.66L116.48-33.66Q120.70-39.68 128.26-42.24L128.26-42.24L128.26-42.24Q132.16-43.52 136-43.52L136-43.52L136-43.52Q139.84-43.52 142.21-43.01L142.21-43.01L142.21-43.01Q144.58-42.50 146.37-41.47L146.37-41.47L146.37-41.47Q150.27-39.23 150.27-35.65L150.27-35.65L150.27-35.65Q150.27-32.38 147.20-29.95L147.20-29.95L147.20-29.95Q144.38-27.78 142.08-27.78L142.08-27.78L142.08-27.78Q139.78-27.78 138.82-28.10L138.82-28.10L138.82-28.10Q139.07-30.40 139.07-31.90L139.07-31.90L139.07-31.90Q139.07-33.41 139.01-34.50L139.01-34.50L139.01-34.50Q138.94-35.58 138.62-36.61L138.62-36.61L138.62-36.61Q137.98-38.98 136.03-38.98L136.03-38.98L136.03-38.98Q134.08-38.98 132.13-37.15L132.13-37.15L132.13-37.15Q130.18-35.33 128.51-32.26L128.51-32.26L128.51-32.26Q124.74-25.28 124.74-17.02L124.74-17.02L124.74-17.02Q124.74-13.06 126.98-10.78L126.98-10.78L126.98-10.78Q129.22-8.51 134.02-8.51L134.02-8.51L134.02-8.51Q137.60-8.51 140.99-10.88L140.99-10.88L140.99-10.88Q142.46-11.90 143.55-13.25ZM155.97 0L148.61 0L160.19-42.24L173.57-42.24L176.51-18.11L188.42-42.24L199.62-42.24L200.77-10.62L200.77-10.62Q201.02-4.35 204.10-2.43L204.10-2.43L204.10-2.43Q203.39-1.15 201.34 0.06L201.34 0.06L201.34 0.06Q199.30 1.28 196.58 1.28L196.58 1.28L196.58 1.28Q193.86 1.28 192.26 0.51L192.26 0.51L192.26 0.51Q190.66-0.26 189.76-1.54L189.76-1.54L189.76-1.54Q188.16-3.84 188.16-8.26L188.16-8.26L188.16-28.03L175.55 0L167.62 0L163.14-28.74L155.97 0ZM231.81-29.57L231.81-29.57L231.81-29.57Q232.77-31.49 232.77-33.28L232.77-33.28L232.77-33.28Q232.77-35.07 232.58-36.06L232.58-36.06L232.58-36.06Q232.38-37.06 231.94-37.82L231.94-37.82L231.94-37.82Q230.98-39.49 229.06-39.49L229.06-39.49L229.06-39.49Q226.69-39.49 224.77-37.76L224.77-37.76L224.77-37.76Q222.72-35.97 222.72-33.15L222.72-33.15L222.72-33.15Q222.72-31.36 223.97-29.98L223.97-29.98L223.97-29.98Q225.22-28.61 227.14-27.33L227.14-27.33L227.14-27.33Q229.06-26.05 231.23-24.77L231.23-24.77L231.23-24.77Q233.41-23.49 235.33-21.95L235.33-21.95L235.33-21.95Q239.74-18.43 239.74-13.70L239.74-13.70L239.74-13.70Q239.74-10.50 238.05-7.78L238.05-7.78L238.05-7.78Q236.35-5.06 233.54-3.07L233.54-3.07L233.54-3.07Q227.39 1.28 219.26 1.28L219.26 1.28L219.26 1.28Q212.67 1.28 209.28-0.86L209.28-0.86L209.28-0.86Q205.89-3.01 205.89-6.27L205.89-6.27L205.89-6.27Q205.89-12.10 210.43-13.57L210.43-13.57L210.43-13.57Q211.71-14.02 213.66-14.02L213.66-14.02L213.66-14.02Q215.62-14.02 217.86-13.18L217.86-13.18L217.86-13.18Q216.83-10.56 216.83-8.19L216.83-8.19L216.83-8.19Q216.83-3.07 220.48-3.07L220.48-3.07L220.48-3.07Q222.85-3.07 224.80-4.80L224.80-4.80L224.80-4.80Q226.75-6.53 226.75-8.48L226.75-8.48L226.75-8.48Q226.75-10.43 225.50-11.84L225.50-11.84L225.50-11.84Q224.26-13.25 222.40-14.37L222.40-14.37L222.40-14.37Q220.54-15.49 218.40-16.58L218.40-16.58L218.40-16.58Q216.26-17.66 214.40-19.20L214.40-19.20L214.40-19.20Q210.05-22.72 210.05-28.35L210.05-28.35L210.05-28.35Q210.05-32 211.84-34.85L211.84-34.85L211.84-34.85Q213.63-37.70 216.51-39.62L216.51-39.62L216.51-39.62Q222.27-43.52 229.34-43.52L229.34-43.52L229.34-43.52Q236.42-43.52 239.84-41.41L239.84-41.41L239.84-41.41Q243.26-39.30 243.26-35.71L243.26-35.71L243.26-35.71Q243.26-32.58 240.83-30.59L240.83-30.59L240.83-30.59Q238.72-28.93 236.16-28.93L236.16-28.93L236.16-28.93Q233.60-28.93 231.81-29.57Z" fill="#8ce80e"></path></g></g><style>text {
  font-size: 64px;
  font-family: Arial Black;
  dominant-baseline: central;
  text-anchor: middle;
}</style></svg>